# xmcd
#
# Track frame offsets:
#	150
#	13680
#	41941
#	76514
#	118383
#	144992
#	182012
#	210659
#	241531
#	246858
#	281235
#	307366
#
# Disc length: 4492 seconds
#
# Revision: 0
# Processed by: cddbd v1.5.2PL0 Copyright (c) Steve Scherf et al.
# Submitted via: audiograbber 1.83.01
#
DISCID=aa118a0c
DTITLE=Grateful Dead - 93-09-10 Richfield Coliseum, Richfield OH
DYEAR=1900
DGENRE=
TTITLE0=Tuning
TTITLE1=Jack Straw
TTITLE2=They Love Each Other
TTITLE3=Little Red Rooster
TTITLE4=Just Like Tom Thumb's Blues
TTITLE5=Ramble On Rose
TTITLE6=Black Throated Wind
TTITLE7=Bertha
TTITLE8=Tuning
TTITLE9=China Cat Sunflower
TTITLE10=I Know You Rider
TTITLE11=Way To Go Home
EXTD=
EXTT0=
EXTT1=
EXTT2=
EXTT3=
EXTT4=
EXTT5=
EXTT6=
EXTT7=
EXTT8=
EXTT9=
EXTT10=
EXTT11=
PLAYORDER=
